<svg xmlns="http://www.w3.org/2000/svg" viewBox="0 0 32 32" shape-rendering="crispEdges">
  <title>Hanshal Goyal</title>
  <path fill="#160829" d="M4 0h24v2h2v2h2v24h-2v2h-2v2H4v-2H2v-2H0V4h2V2h2z"/>
  <path fill="#7624ae" d="M4 2h24v2h2v24h-2v2H4v-2H2V4h2z"/>
  <path fill="#45116d" d="M4 18h24v10H4z"/>
  <path fill="#240a39" d="M8 8h6v7h7V8h6v20h-6v-7h-7v7H8z"/>
  <path fill="#f2ac49" d="M6 6h6v7h8V6h6v20h-6v-8h-8v8H6z"/>
  <path fill="#ffe8b2" d="M6 6h6v2H8v5H6zm14 0h6v2h-6zm-8 7h8v2h-8z"/>
</svg>
